<?xml version="1.0" encoding="UTF-8" standalone="no"?>
<!DOCTYPE svg PUBLIC "-//W3C//DTD SVG 1.1//EN"
 "http://www.w3.org/Graphics/SVG/1.1/DTD/svg11.dtd">
<!-- Generated by graphviz version 2.43.0 (0)
 -->
<!-- Title: ComputationGraph Pages: 1 -->
<svg width="155pt" height="50pt"
 viewBox="0.00 0.00 155.00 50.00" xmlns="http://www.w3.org/2000/svg" xmlns:xlink="http://www.w3.org/1999/xlink">
<g id="graph0" class="graph" transform="scale(1 1) rotate(0) translate(4 46)">
<title>ComputationGraph</title>
<polygon fill="white" stroke="transparent" points="-4,4 -4,-46 151,-46 151,4 -4,4"/>
<!-- nroot -->
<g id="node1" class="node">
<title>nroot</title>
<polygon fill="#c1ffc1" stroke="transparent" points="147,-42 0,-42 0,0 147,0 147,-42"/>
<polygon fill="none" stroke="black" points="0.5,0 0.5,-42 47.5,-42 47.5,0 0.5,0"/>
<text text-anchor="start" x="8.5" y="-24" font-family="Linux libertine" font-size="10.00">Linear</text>
<text text-anchor="start" x="5.5" y="-13" font-family="Linux libertine" font-size="10.00">depth:0</text>
<polygon fill="none" stroke="black" points="47.5,-21 47.5,-42 92.5,-42 92.5,-21 47.5,-21"/>
<text text-anchor="start" x="56" y="-29" font-family="Linux libertine" font-size="10.00">input:</text>
<polygon fill="none" stroke="black" points="92.5,-21 92.5,-42 147.5,-42 147.5,-21 92.5,-21"/>
<text text-anchor="start" x="97.5" y="-29" font-family="Linux libertine" font-size="10.00">unknown</text>
<polygon fill="none" stroke="black" points="47.5,0 47.5,-21 92.5,-21 92.5,0 47.5,0"/>
<text text-anchor="start" x="52.5" y="-8" font-family="Linux libertine" font-size="10.00">output:</text>
<polygon fill="none" stroke="black" points="92.5,0 92.5,-21 147.5,-21 147.5,0 92.5,0"/>
<text text-anchor="start" x="97.5" y="-8" font-family="Linux libertine" font-size="10.00">unknown</text>
</g>
</g>
</svg>
