<?xml version="1.0" encoding="UTF-8" standalone="no"?>
<!DOCTYPE svg PUBLIC "-//W3C//DTD SVG 1.1//EN"
 "http://www.w3.org/Graphics/SVG/1.1/DTD/svg11.dtd">
<!-- Generated by graphviz version 2.43.0 (0)
 -->
<!-- Title: ComputationGraph Pages: 1 -->
<svg width="353pt" height="170pt"
 viewBox="0.00 0.00 353.00 170.00" xmlns="http://www.w3.org/2000/svg" xmlns:xlink="http://www.w3.org/1999/xlink">
<g id="graph0" class="graph" transform="scale(1 1) rotate(0) translate(4 166)">
<title>ComputationGraph</title>
<polygon fill="white" stroke="transparent" points="-4,4 -4,-166 349,-166 349,4 -4,4"/>
<!-- nroot -->
<g id="node1" class="node">
<title>nroot</title>
<polygon fill="#c1ffc1" stroke="transparent" points="162,-102 0,-102 0,-60 162,-60 162,-102"/>
<polygon fill="none" stroke="black" points="0,-60 0,-102 62,-102 62,-60 0,-60"/>
<text text-anchor="start" x="5" y="-84" font-family="Linux libertine" font-size="10.00">SimpleNet</text>
<text text-anchor="start" x="12.5" y="-73" font-family="Linux libertine" font-size="10.00">depth:0</text>
<polygon fill="none" stroke="black" points="62,-81 62,-102 107,-102 107,-81 62,-81"/>
<text text-anchor="start" x="70.5" y="-89" font-family="Linux libertine" font-size="10.00">input:</text>
<polygon fill="none" stroke="black" points="107,-81 107,-102 162,-102 162,-81 107,-81"/>
<text text-anchor="start" x="112" y="-89" font-family="Linux libertine" font-size="10.00">unknown</text>
<polygon fill="none" stroke="black" points="62,-60 62,-81 107,-81 107,-60 62,-60"/>
<text text-anchor="start" x="67" y="-68" font-family="Linux libertine" font-size="10.00">output:</text>
<polygon fill="none" stroke="black" points="107,-60 107,-81 162,-81 162,-60 107,-60"/>
<text text-anchor="start" x="112" y="-68" font-family="Linux libertine" font-size="10.00">unknown</text>
</g>
<!-- nfc1 -->
<g id="node2" class="node">
<title>nfc1</title>
<polygon fill="#c1ffc1" stroke="transparent" points="345,-162 198,-162 198,-120 345,-120 345,-162"/>
<polygon fill="none" stroke="black" points="198.5,-120 198.5,-162 245.5,-162 245.5,-120 198.5,-120"/>
<text text-anchor="start" x="206.5" y="-144" font-family="Linux libertine" font-size="10.00">Linear</text>
<text text-anchor="start" x="203.5" y="-133" font-family="Linux libertine" font-size="10.00">depth:0</text>
<polygon fill="none" stroke="black" points="245.5,-141 245.5,-162 290.5,-162 290.5,-141 245.5,-141"/>
<text text-anchor="start" x="254" y="-149" font-family="Linux libertine" font-size="10.00">input:</text>
<polygon fill="none" stroke="black" points="290.5,-141 290.5,-162 345.5,-162 345.5,-141 290.5,-141"/>
<text text-anchor="start" x="295.5" y="-149" font-family="Linux libertine" font-size="10.00">unknown</text>
<polygon fill="none" stroke="black" points="245.5,-120 245.5,-141 290.5,-141 290.5,-120 245.5,-120"/>
<text text-anchor="start" x="250.5" y="-128" font-family="Linux libertine" font-size="10.00">output:</text>
<polygon fill="none" stroke="black" points="290.5,-120 290.5,-141 345.5,-141 345.5,-120 290.5,-120"/>
<text text-anchor="start" x="295.5" y="-128" font-family="Linux libertine" font-size="10.00">unknown</text>
</g>
<!-- nroot&#45;&gt;nfc1 -->
<g id="edge1" class="edge">
<title>nroot&#45;&gt;nfc1</title>
<path fill="none" stroke="black" d="M148.19,-102.07C163.16,-106.83 179.17,-111.93 194.5,-116.81"/>
<polygon fill="black" stroke="black" points="193.88,-120.28 204.47,-119.98 196,-113.61 193.88,-120.28"/>
</g>
<!-- nrelu -->
<g id="node3" class="node">
<title>nrelu</title>
<polygon fill="#c1ffc1" stroke="transparent" points="345,-102 198,-102 198,-60 345,-60 345,-102"/>
<polygon fill="none" stroke="black" points="198.5,-60 198.5,-102 245.5,-102 245.5,-60 198.5,-60"/>
<text text-anchor="start" x="209" y="-84" font-family="Linux libertine" font-size="10.00">ReLU</text>
<text text-anchor="start" x="203.5" y="-73" font-family="Linux libertine" font-size="10.00">depth:0</text>
<polygon fill="none" stroke="black" points="245.5,-81 245.5,-102 290.5,-102 290.5,-81 245.5,-81"/>
<text text-anchor="start" x="254" y="-89" font-family="Linux libertine" font-size="10.00">input:</text>
<polygon fill="none" stroke="black" points="290.5,-81 290.5,-102 345.5,-102 345.5,-81 290.5,-81"/>
<text text-anchor="start" x="295.5" y="-89" font-family="Linux libertine" font-size="10.00">unknown</text>
<polygon fill="none" stroke="black" points="245.5,-60 245.5,-81 290.5,-81 290.5,-60 245.5,-60"/>
<text text-anchor="start" x="250.5" y="-68" font-family="Linux libertine" font-size="10.00">output:</text>
<polygon fill="none" stroke="black" points="290.5,-60 290.5,-81 345.5,-81 345.5,-60 290.5,-60"/>
<text text-anchor="start" x="295.5" y="-68" font-family="Linux libertine" font-size="10.00">unknown</text>
</g>
<!-- nroot&#45;&gt;nrelu -->
<g id="edge2" class="edge">
<title>nroot&#45;&gt;nrelu</title>
<path fill="none" stroke="black" d="M162.21,-81C170.62,-81 179.18,-81 187.61,-81"/>
<polygon fill="black" stroke="black" points="187.82,-84.5 197.82,-81 187.82,-77.5 187.82,-84.5"/>
</g>
<!-- nfc2 -->
<g id="node4" class="node">
<title>nfc2</title>
<polygon fill="#c1ffc1" stroke="transparent" points="345,-42 198,-42 198,0 345,0 345,-42"/>
<polygon fill="none" stroke="black" points="198.5,0 198.5,-42 245.5,-42 245.5,0 198.5,0"/>
<text text-anchor="start" x="206.5" y="-24" font-family="Linux libertine" font-size="10.00">Linear</text>
<text text-anchor="start" x="203.5" y="-13" font-family="Linux libertine" font-size="10.00">depth:0</text>
<polygon fill="none" stroke="black" points="245.5,-21 245.5,-42 290.5,-42 290.5,-21 245.5,-21"/>
<text text-anchor="start" x="254" y="-29" font-family="Linux libertine" font-size="10.00">input:</text>
<polygon fill="none" stroke="black" points="290.5,-21 290.5,-42 345.5,-42 345.5,-21 290.5,-21"/>
<text text-anchor="start" x="295.5" y="-29" font-family="Linux libertine" font-size="10.00">unknown</text>
<polygon fill="none" stroke="black" points="245.5,0 245.5,-21 290.5,-21 290.5,0 245.5,0"/>
<text text-anchor="start" x="250.5" y="-8" font-family="Linux libertine" font-size="10.00">output:</text>
<polygon fill="none" stroke="black" points="290.5,0 290.5,-21 345.5,-21 345.5,0 290.5,0"/>
<text text-anchor="start" x="295.5" y="-8" font-family="Linux libertine" font-size="10.00">unknown</text>
</g>
<!-- nroot&#45;&gt;nfc2 -->
<g id="edge3" class="edge">
<title>nroot&#45;&gt;nfc2</title>
<path fill="none" stroke="black" d="M148.19,-59.93C163.16,-55.17 179.17,-50.07 194.5,-45.19"/>
<polygon fill="black" stroke="black" points="196,-48.39 204.47,-42.02 193.88,-41.72 196,-48.39"/>
</g>
</g>
</svg>
