<?xml version="1.0" encoding="UTF-8" standalone="no"?>
<!DOCTYPE svg PUBLIC "-//W3C//DTD SVG 1.1//EN"
 "http://www.w3.org/Graphics/SVG/1.1/DTD/svg11.dtd">
<!-- Generated by graphviz version 2.43.0 (0)
 -->
<!-- Title: ComputationGraph Pages: 1 -->
<svg width="864pt" height="50pt"
 viewBox="0.00 0.00 864.00 49.64" xmlns="http://www.w3.org/2000/svg" xmlns:xlink="http://www.w3.org/1999/xlink">
<g id="graph0" class="graph" transform="scale(2.21 2.21) rotate(0) translate(4 105.5)">
<title>ComputationGraph</title>
<polygon fill="white" stroke="transparent" points="-4,4 -4,-105.5 1902,-105.5 1902,4 -4,4"/>
<!-- nmodule_0 -->
<g id="node1" class="node">
<title>nmodule_0</title>
<polygon fill="#c1ffc1" stroke="transparent" points="629,-42 480,-42 480,0 629,0 629,-42"/>
<polygon fill="none" stroke="black" points="480.5,0 480.5,-42 542.5,-42 542.5,0 480.5,0"/>
<text text-anchor="start" x="485.5" y="-24" font-family="Linux libertine" font-size="10.00">SimpleNet</text>
<text text-anchor="start" x="493" y="-13" font-family="Linux libertine" font-size="10.00">depth:0</text>
<polygon fill="none" stroke="black" points="542.5,-21 542.5,-42 587.5,-42 587.5,-21 542.5,-21"/>
<text text-anchor="start" x="551" y="-29" font-family="Linux libertine" font-size="10.00">input:</text>
<polygon fill="none" stroke="black" points="587.5,-21 587.5,-42 629.5,-42 629.5,-21 587.5,-21"/>
<text text-anchor="start" x="592.5" y="-29" font-family="Linux libertine" font-size="10.00">(1, 10)</text>
<polygon fill="none" stroke="black" points="542.5,0 542.5,-21 587.5,-21 587.5,0 542.5,0"/>
<text text-anchor="start" x="547.5" y="-8" font-family="Linux libertine" font-size="10.00">output:</text>
<polygon fill="none" stroke="black" points="587.5,0 587.5,-21 629.5,-21 629.5,0 587.5,0"/>
<text text-anchor="start" x="592.5" y="-8" font-family="Linux libertine" font-size="10.00">(1, 10)</text>
</g>
<!-- noutput_tensor_7 -->
<g id="node8" class="node">
<title>noutput_tensor_7</title>
<polygon fill="lightyellow" stroke="transparent" points="1898,-58.5 1638,-58.5 1638,-5.5 1898,-5.5 1898,-58.5"/>
<polygon fill="none" stroke="black" points="1638,-26 1638,-58 1753,-58 1753,-26 1638,-26"/>
<text text-anchor="start" x="1674" y="-45" font-family="Linux libertine" font-size="10.00">output_0</text>
<text text-anchor="start" x="1677" y="-34" font-family="Linux libertine" font-size="10.00">depth:0</text>
<polygon fill="none" stroke="black" points="1753,-26 1753,-58 1898,-58 1898,-26 1753,-26"/>
<text text-anchor="start" x="1789.5" y="-39.5" font-family="Linux libertine" font-size="10.00">(1, 10), float32</text>
<polygon fill="none" stroke="black" points="1638,-5 1638,-26 1898,-26 1898,-5 1638,-5"/>
<text text-anchor="start" x="1643" y="-13" font-family="Linux libertine" font-size="10.00">min=&#45;0.461, max=0.415, mean=&#45;0.002, std=0.288</text>
</g>
<!-- nmodule_0&#45;&gt;noutput_tensor_7 -->
<g id="edge8" class="edge">
<title>nmodule_0&#45;&gt;noutput_tensor_7</title>
<path fill="none" stroke="black" d="M629.21,-20.69C706.61,-20.4 831.86,-20 940,-20 940,-20 940,-20 1535,-20 1564.98,-20 1597.12,-21.01 1627.63,-22.45"/>
<polygon fill="black" stroke="black" points="1627.75,-25.96 1637.91,-22.95 1628.09,-18.97 1627.75,-25.96"/>
</g>
<!-- ninput_tensor_1 -->
<g id="node2" class="node">
<title>ninput_tensor_1</title>
<polygon fill="lightyellow" stroke="transparent" points="260,-67.5 0,-67.5 0,-14.5 260,-14.5 260,-67.5"/>
<polygon fill="none" stroke="black" points="0,-35 0,-67 112,-67 112,-35 0,-35"/>
<text text-anchor="start" x="37.5" y="-54" font-family="Linux libertine" font-size="10.00">input_0</text>
<text text-anchor="start" x="37.5" y="-43" font-family="Linux libertine" font-size="10.00">depth:0</text>
<polygon fill="none" stroke="black" points="112,-35 112,-67 260,-67 260,-35 112,-35"/>
<text text-anchor="start" x="150" y="-48.5" font-family="Linux libertine" font-size="10.00">(1, 10), float32</text>
<polygon fill="none" stroke="black" points="0,-14 0,-35 260,-35 260,-14 0,-14"/>
<text text-anchor="start" x="5" y="-22" font-family="Linux libertine" font-size="10.00">min=&#45;1.301, max=1.035, mean=&#45;0.145, std=0.773</text>
</g>
<!-- ninput_tensor_1&#45;&gt;nmodule_0 -->
<g id="edge1" class="edge">
<title>ninput_tensor_1&#45;&gt;nmodule_0</title>
<path fill="none" stroke="black" d="M260.06,-34.89C328.19,-31.67 409.84,-27.8 469.69,-24.97"/>
<polygon fill="black" stroke="black" points="470.03,-28.46 479.85,-24.49 469.7,-21.46 470.03,-28.46"/>
<text text-anchor="middle" x="294" y="-37" font-family="Times,serif" font-size="10.00">(1, 10)</text>
</g>
<!-- nmodule_2 -->
<g id="node3" class="node">
<title>nmodule_2</title>
<polygon fill="#c1ffc1" stroke="transparent" points="462,-95 328,-95 328,-53 462,-53 462,-95"/>
<polygon fill="none" stroke="black" points="328,-53 328,-95 375,-95 375,-53 328,-53"/>
<text text-anchor="start" x="336" y="-77" font-family="Linux libertine" font-size="10.00">Linear</text>
<text text-anchor="start" x="333" y="-66" font-family="Linux libertine" font-size="10.00">depth:0</text>
<polygon fill="none" stroke="black" points="375,-74 375,-95 420,-95 420,-74 375,-74"/>
<text text-anchor="start" x="383.5" y="-82" font-family="Linux libertine" font-size="10.00">input:</text>
<polygon fill="none" stroke="black" points="420,-74 420,-95 462,-95 462,-74 420,-74"/>
<text text-anchor="start" x="425" y="-82" font-family="Linux libertine" font-size="10.00">(1, 10)</text>
<polygon fill="none" stroke="black" points="375,-53 375,-74 420,-74 420,-53 375,-53"/>
<text text-anchor="start" x="380" y="-61" font-family="Linux libertine" font-size="10.00">output:</text>
<polygon fill="none" stroke="black" points="420,-53 420,-74 462,-74 462,-53 420,-53"/>
<text text-anchor="start" x="425" y="-61" font-family="Linux libertine" font-size="10.00">(1, 20)</text>
</g>
<!-- ninput_tensor_1&#45;&gt;nmodule_2 -->
<g id="edge2" class="edge">
<title>ninput_tensor_1&#45;&gt;nmodule_2</title>
<path fill="none" stroke="black" d="M260.19,-57.21C279.83,-59.67 299.53,-62.15 317.56,-64.41"/>
<polygon fill="black" stroke="black" points="317.31,-67.91 327.67,-65.68 318.18,-60.96 317.31,-67.91"/>
<text text-anchor="middle" x="294" y="-66" font-family="Times,serif" font-size="10.00">(1, 10)</text>
</g>
<!-- noutput_tensor_3 -->
<g id="node4" class="node">
<title>noutput_tensor_3</title>
<polygon fill="lightyellow" stroke="transparent" points="907,-101.5 647,-101.5 647,-48.5 907,-48.5 907,-101.5"/>
<polygon fill="none" stroke="black" points="647,-69 647,-101 762,-101 762,-69 647,-69"/>
<text text-anchor="start" x="683" y="-88" font-family="Linux libertine" font-size="10.00">output_0</text>
<text text-anchor="start" x="686" y="-77" font-family="Linux libertine" font-size="10.00">depth:0</text>
<polygon fill="none" stroke="black" points="762,-69 762,-101 907,-101 907,-69 762,-69"/>
<text text-anchor="start" x="798.5" y="-82.5" font-family="Linux libertine" font-size="10.00">(1, 20), float32</text>
<polygon fill="none" stroke="black" points="647,-48 647,-69 907,-69 907,-48 647,-48"/>
<text text-anchor="start" x="652" y="-56" font-family="Linux libertine" font-size="10.00">min=&#45;0.829, max=1.214, mean=&#45;0.042, std=0.452</text>
</g>
<!-- nmodule_2&#45;&gt;noutput_tensor_3 -->
<g id="edge3" class="edge">
<title>nmodule_2&#45;&gt;noutput_tensor_3</title>
<path fill="none" stroke="black" d="M462.19,-74.17C510.23,-74.3 576.98,-74.48 636.57,-74.63"/>
<polygon fill="black" stroke="black" points="636.83,-78.13 646.84,-74.66 636.84,-71.13 636.83,-78.13"/>
</g>
<!-- nmodule_4 -->
<g id="node5" class="node">
<title>nmodule_4</title>
<polygon fill="#c1ffc1" stroke="transparent" points="1109,-96 975,-96 975,-54 1109,-54 1109,-96"/>
<polygon fill="none" stroke="black" points="975,-54 975,-96 1022,-96 1022,-54 975,-54"/>
<text text-anchor="start" x="985.5" y="-78" font-family="Linux libertine" font-size="10.00">ReLU</text>
<text text-anchor="start" x="980" y="-67" font-family="Linux libertine" font-size="10.00">depth:0</text>
<polygon fill="none" stroke="black" points="1022,-75 1022,-96 1067,-96 1067,-75 1022,-75"/>
<text text-anchor="start" x="1030.5" y="-83" font-family="Linux libertine" font-size="10.00">input:</text>
<polygon fill="none" stroke="black" points="1067,-75 1067,-96 1109,-96 1109,-75 1067,-75"/>
<text text-anchor="start" x="1072" y="-83" font-family="Linux libertine" font-size="10.00">(1, 20)</text>
<polygon fill="none" stroke="black" points="1022,-54 1022,-75 1067,-75 1067,-54 1022,-54"/>
<text text-anchor="start" x="1027" y="-62" font-family="Linux libertine" font-size="10.00">output:</text>
<polygon fill="none" stroke="black" points="1067,-54 1067,-75 1109,-75 1109,-54 1067,-54"/>
<text text-anchor="start" x="1072" y="-62" font-family="Linux libertine" font-size="10.00">(1, 20)</text>
</g>
<!-- noutput_tensor_3&#45;&gt;nmodule_4 -->
<g id="edge4" class="edge">
<title>noutput_tensor_3&#45;&gt;nmodule_4</title>
<path fill="none" stroke="black" d="M907.19,-75C926.83,-75 946.53,-75 964.56,-75"/>
<polygon fill="black" stroke="black" points="964.67,-78.5 974.67,-75 964.67,-71.5 964.67,-78.5"/>
<text text-anchor="middle" x="941" y="-78" font-family="Times,serif" font-size="10.00">(1, 20)</text>
</g>
<!-- noutput_tensor_5 -->
<g id="node6" class="node">
<title>noutput_tensor_5</title>
<polygon fill="lightyellow" stroke="transparent" points="1399,-101.5 1146,-101.5 1146,-48.5 1399,-48.5 1399,-101.5"/>
<polygon fill="none" stroke="black" points="1146.5,-69 1146.5,-101 1258.5,-101 1258.5,-69 1146.5,-69"/>
<text text-anchor="start" x="1181" y="-88" font-family="Linux libertine" font-size="10.00">output_0</text>
<text text-anchor="start" x="1184" y="-77" font-family="Linux libertine" font-size="10.00">depth:0</text>
<polygon fill="none" stroke="black" points="1258.5,-69 1258.5,-101 1399.5,-101 1399.5,-69 1258.5,-69"/>
<text text-anchor="start" x="1293" y="-82.5" font-family="Linux libertine" font-size="10.00">(1, 20), float32</text>
<polygon fill="none" stroke="black" points="1146.5,-48 1146.5,-69 1399.5,-69 1399.5,-48 1146.5,-48"/>
<text text-anchor="start" x="1151.5" y="-56" font-family="Linux libertine" font-size="10.00">min=0.000, max=1.214, mean=0.144, std=0.286</text>
</g>
<!-- nmodule_4&#45;&gt;noutput_tensor_5 -->
<g id="edge5" class="edge">
<title>nmodule_4&#45;&gt;noutput_tensor_5</title>
<path fill="none" stroke="black" d="M1109.09,-75C1117.52,-75 1126.37,-75 1135.42,-75"/>
<polygon fill="black" stroke="black" points="1135.7,-78.5 1145.7,-75 1135.7,-71.5 1135.7,-78.5"/>
</g>
<!-- nmodule_6 -->
<g id="node7" class="node">
<title>nmodule_6</title>
<polygon fill="#c1ffc1" stroke="transparent" points="1601,-93 1467,-93 1467,-51 1601,-51 1601,-93"/>
<polygon fill="none" stroke="black" points="1467,-51 1467,-93 1514,-93 1514,-51 1467,-51"/>
<text text-anchor="start" x="1475" y="-75" font-family="Linux libertine" font-size="10.00">Linear</text>
<text text-anchor="start" x="1472" y="-64" font-family="Linux libertine" font-size="10.00">depth:0</text>
<polygon fill="none" stroke="black" points="1514,-72 1514,-93 1559,-93 1559,-72 1514,-72"/>
<text text-anchor="start" x="1522.5" y="-80" font-family="Linux libertine" font-size="10.00">input:</text>
<polygon fill="none" stroke="black" points="1559,-72 1559,-93 1601,-93 1601,-72 1559,-72"/>
<text text-anchor="start" x="1564" y="-80" font-family="Linux libertine" font-size="10.00">(1, 20)</text>
<polygon fill="none" stroke="black" points="1514,-51 1514,-72 1559,-72 1559,-51 1514,-51"/>
<text text-anchor="start" x="1519" y="-59" font-family="Linux libertine" font-size="10.00">output:</text>
<polygon fill="none" stroke="black" points="1559,-51 1559,-72 1601,-72 1601,-51 1559,-51"/>
<text text-anchor="start" x="1564" y="-59" font-family="Linux libertine" font-size="10.00">(1, 10)</text>
</g>
<!-- noutput_tensor_5&#45;&gt;nmodule_6 -->
<g id="edge6" class="edge">
<title>noutput_tensor_5&#45;&gt;nmodule_6</title>
<path fill="none" stroke="black" d="M1399.07,-73.55C1418.74,-73.32 1438.53,-73.09 1456.64,-72.88"/>
<polygon fill="black" stroke="black" points="1456.85,-76.38 1466.81,-72.77 1456.77,-69.38 1456.85,-76.38"/>
<text text-anchor="middle" x="1433" y="-76" font-family="Times,serif" font-size="10.00">(1, 20)</text>
</g>
<!-- nmodule_6&#45;&gt;noutput_tensor_7 -->
<g id="edge7" class="edge">
<title>nmodule_6&#45;&gt;noutput_tensor_7</title>
<path fill="none" stroke="black" d="M1601.17,-60.59C1609.73,-59.12 1618.73,-57.56 1627.94,-55.98"/>
<polygon fill="black" stroke="black" points="1628.73,-59.39 1637.99,-54.24 1627.54,-52.49 1628.73,-59.39"/>
</g>
</g>
</svg>
