<?xml version="1.0" encoding="UTF-8" standalone="no"?>
<!DOCTYPE svg PUBLIC "-//W3C//DTD SVG 1.1//EN"
 "http://www.w3.org/Graphics/SVG/1.1/DTD/svg11.dtd">
<!-- Generated by graphviz version 2.43.0 (0)
 -->
<!-- Title: ExecutionGraph Pages: 1 -->
<svg width="104pt" height="38pt"
 viewBox="0.00 0.00 104.00 38.00" xmlns="http://www.w3.org/2000/svg" xmlns:xlink="http://www.w3.org/1999/xlink">
<g id="graph0" class="graph" transform="scale(1 1) rotate(0) translate(4 34)">
<title>ExecutionGraph</title>
<polygon fill="white" stroke="transparent" points="-4,4 -4,-34 100,-34 100,4 -4,4"/>
<!-- op0 -->
<g id="node1" class="node">
<title>op0</title>
<polygon fill="lightgrey" stroke="transparent" points="96,-30 0,-30 0,0 96,0 96,-30"/>
<polygon fill="lightyellow" stroke="transparent" points="0,0 0,-30 14,-30 14,0 0,0"/>
<polygon fill="none" stroke="black" points="0,0 0,-30 14,-30 14,0 0,0"/>
<text text-anchor="start" x="5" y="-12.5" font-family="Linux libertine" font-size="10.00">&#45;</text>
<polygon fill="#c1ffc1" stroke="transparent" points="14,0 14,-30 82,-30 82,0 14,0"/>
<polygon fill="none" stroke="black" points="14,0 14,-30 82,-30 82,0 14,0"/>
<text text-anchor="start" x="30" y="-18" font-family="Linux libertine" font-weight="bold" font-size="10.00">Linear</text>
<text text-anchor="start" x="19" y="-8" font-family="Linux libertine" font-size="10.00">210 params</text>
<polygon fill="lightyellow" stroke="transparent" points="82,0 82,-30 96,-30 96,0 82,0"/>
<polygon fill="none" stroke="black" points="82,0 82,-30 96,-30 96,0 82,0"/>
<text text-anchor="start" x="87" y="-12.5" font-family="Linux libertine" font-size="10.00">&#45;</text>
</g>
</g>
</svg>
