<?xml version="1.0" encoding="UTF-8" standalone="no"?>
<!DOCTYPE svg PUBLIC "-//W3C//DTD SVG 1.1//EN"
 "http://www.w3.org/Graphics/SVG/1.1/DTD/svg11.dtd">
<!-- Generated by graphviz version 2.43.0 (0)
 -->
<!-- Title: StructureGraph Pages: 1 -->
<svg width="605pt" height="424pt"
 viewBox="0.00 0.00 605.00 424.00" xmlns="http://www.w3.org/2000/svg" xmlns:xlink="http://www.w3.org/1999/xlink">
<g id="graph0" class="graph" transform="scale(1 1) rotate(0) translate(4 420)">
<title>StructureGraph</title>
<polygon fill="white" stroke="transparent" points="-4,4 -4,-420 601,-420 601,4 -4,4"/>
<!-- root -->
<g id="node1" class="node">
<title>root</title>
<polygon fill="#c1ffc1" stroke="transparent" points="184,-230 0,-230 0,-186 184,-186 184,-230"/>
<polygon fill="#f0f0f0" stroke="transparent" points="8,-190 8,-226 50,-226 50,-190 8,-190"/>
<polygon fill="none" stroke="black" points="8,-190 8,-226 50,-226 50,-190 8,-190"/>
<text text-anchor="start" x="15" y="-205.5" font-family="Times,serif" font-size="10.00">input</text>
<polygon fill="none" stroke="black" points="50,-190 50,-226 128,-226 128,-190 50,-190"/>
<text text-anchor="start" x="57" y="-211" font-family="Times,serif" font-size="10.00">ComplexNet</text>
<text text-anchor="start" x="67.5" y="-200" font-family="Times,serif" font-size="10.00">depth: 0</text>
<polygon fill="#f0f0f0" stroke="transparent" points="128,-190 128,-226 176,-226 176,-190 128,-190"/>
<polygon fill="none" stroke="black" points="128,-190 128,-226 176,-226 176,-190 128,-190"/>
<text text-anchor="start" x="135" y="-205.5" font-family="Times,serif" font-size="10.00">output</text>
</g>
<!-- layers -->
<g id="node2" class="node">
<title>layers</title>
<polygon fill="#c1ffc1" stroke="transparent" points="398,-230 220,-230 220,-186 398,-186 398,-230"/>
<polygon fill="#f0f0f0" stroke="transparent" points="228,-190 228,-226 270,-226 270,-190 228,-190"/>
<polygon fill="none" stroke="black" points="228,-190 228,-226 270,-226 270,-190 228,-190"/>
<text text-anchor="start" x="235" y="-205.5" font-family="Times,serif" font-size="10.00">input</text>
<polygon fill="none" stroke="black" points="270,-190 270,-226 342,-226 342,-190 270,-190"/>
<text text-anchor="start" x="277" y="-211" font-family="Times,serif" font-size="10.00">ModuleList</text>
<text text-anchor="start" x="284.5" y="-200" font-family="Times,serif" font-size="10.00">depth: 1</text>
<polygon fill="#f0f0f0" stroke="transparent" points="342,-190 342,-226 390,-226 390,-190 342,-190"/>
<polygon fill="none" stroke="black" points="342,-190 342,-226 390,-226 390,-190 342,-190"/>
<text text-anchor="start" x="349" y="-205.5" font-family="Times,serif" font-size="10.00">output</text>
</g>
<!-- root&#45;&gt;layers -->
<g id="edge1" class="edge">
<title>root&#45;&gt;layers</title>
<path fill="none" stroke="black" d="M184.18,-208C192.56,-208 201.08,-208 209.52,-208"/>
<polygon fill="black" stroke="black" points="209.76,-211.5 219.76,-208 209.76,-204.5 209.76,-211.5"/>
</g>
<!-- layers_0 -->
<g id="node3" class="node">
<title>layers_0</title>
<polygon fill="#c1ffc1" stroke="transparent" points="597,-416 434,-416 434,-372 597,-372 597,-416"/>
<polygon fill="#f0f0f0" stroke="transparent" points="442.5,-376 442.5,-412 484.5,-412 484.5,-376 442.5,-376"/>
<polygon fill="none" stroke="black" points="442.5,-376 442.5,-412 484.5,-412 484.5,-376 442.5,-376"/>
<text text-anchor="start" x="449.5" y="-391.5" font-family="Times,serif" font-size="10.00">input</text>
<polygon fill="none" stroke="black" points="484.5,-376 484.5,-412 541.5,-412 541.5,-376 484.5,-376"/>
<text text-anchor="start" x="496" y="-397" font-family="Times,serif" font-size="10.00">Linear</text>
<text text-anchor="start" x="491.5" y="-386" font-family="Times,serif" font-size="10.00">depth: 2</text>
<polygon fill="#f0f0f0" stroke="transparent" points="541.5,-376 541.5,-412 589.5,-412 589.5,-376 541.5,-376"/>
<polygon fill="none" stroke="black" points="541.5,-376 541.5,-412 589.5,-412 589.5,-376 541.5,-376"/>
<text text-anchor="start" x="548.5" y="-391.5" font-family="Times,serif" font-size="10.00">output</text>
</g>
<!-- layers&#45;&gt;layers_0 -->
<g id="edge2" class="edge">
<title>layers&#45;&gt;layers_0</title>
<path fill="none" stroke="black" d="M322.41,-230.08C342.07,-263.24 383.39,-325.96 434,-363 435.82,-364.33 437.7,-365.61 439.63,-366.84"/>
<polygon fill="black" stroke="black" points="437.97,-369.93 448.38,-371.94 441.5,-363.88 437.97,-369.93"/>
</g>
<!-- layers_1 -->
<g id="node4" class="node">
<title>layers_1</title>
<polygon fill="#c1ffc1" stroke="transparent" points="597,-354 434,-354 434,-310 597,-310 597,-354"/>
<polygon fill="#f0f0f0" stroke="transparent" points="442.5,-314 442.5,-350 484.5,-350 484.5,-314 442.5,-314"/>
<polygon fill="none" stroke="black" points="442.5,-314 442.5,-350 484.5,-350 484.5,-314 442.5,-314"/>
<text text-anchor="start" x="449.5" y="-329.5" font-family="Times,serif" font-size="10.00">input</text>
<polygon fill="none" stroke="black" points="484.5,-314 484.5,-350 541.5,-350 541.5,-314 484.5,-314"/>
<text text-anchor="start" x="499" y="-335" font-family="Times,serif" font-size="10.00">ReLU</text>
<text text-anchor="start" x="491.5" y="-324" font-family="Times,serif" font-size="10.00">depth: 2</text>
<polygon fill="#f0f0f0" stroke="transparent" points="541.5,-314 541.5,-350 589.5,-350 589.5,-314 541.5,-314"/>
<polygon fill="none" stroke="black" points="541.5,-314 541.5,-350 589.5,-350 589.5,-314 541.5,-314"/>
<text text-anchor="start" x="548.5" y="-329.5" font-family="Times,serif" font-size="10.00">output</text>
</g>
<!-- layers&#45;&gt;layers_1 -->
<g id="edge3" class="edge">
<title>layers&#45;&gt;layers_1</title>
<path fill="none" stroke="black" d="M335.17,-230.18C359.26,-250.58 397.27,-280.67 434,-301 436.88,-302.6 439.86,-304.15 442.91,-305.65"/>
<polygon fill="black" stroke="black" points="441.64,-308.92 452.18,-310 444.61,-302.58 441.64,-308.92"/>
</g>
<!-- layers_2 -->
<g id="node5" class="node">
<title>layers_2</title>
<polygon fill="#c1ffc1" stroke="transparent" points="597,-292 434,-292 434,-248 597,-248 597,-292"/>
<polygon fill="#f0f0f0" stroke="transparent" points="442.5,-252 442.5,-288 484.5,-288 484.5,-252 442.5,-252"/>
<polygon fill="none" stroke="black" points="442.5,-252 442.5,-288 484.5,-288 484.5,-252 442.5,-252"/>
<text text-anchor="start" x="449.5" y="-267.5" font-family="Times,serif" font-size="10.00">input</text>
<polygon fill="none" stroke="black" points="484.5,-252 484.5,-288 541.5,-288 541.5,-252 484.5,-252"/>
<text text-anchor="start" x="496" y="-273" font-family="Times,serif" font-size="10.00">Linear</text>
<text text-anchor="start" x="491.5" y="-262" font-family="Times,serif" font-size="10.00">depth: 2</text>
<polygon fill="#f0f0f0" stroke="transparent" points="541.5,-252 541.5,-288 589.5,-288 589.5,-252 541.5,-252"/>
<polygon fill="none" stroke="black" points="541.5,-252 541.5,-288 589.5,-288 589.5,-252 541.5,-252"/>
<text text-anchor="start" x="548.5" y="-267.5" font-family="Times,serif" font-size="10.00">output</text>
</g>
<!-- layers&#45;&gt;layers_2 -->
<g id="edge4" class="edge">
<title>layers&#45;&gt;layers_2</title>
<path fill="none" stroke="black" d="M382.67,-230.03C398.55,-234.85 415.47,-239.98 431.71,-244.9"/>
<polygon fill="black" stroke="black" points="431.13,-248.38 441.71,-247.93 433.16,-241.68 431.13,-248.38"/>
</g>
<!-- layers_3 -->
<g id="node6" class="node">
<title>layers_3</title>
<polygon fill="#c1ffc1" stroke="transparent" points="597,-230 434,-230 434,-186 597,-186 597,-230"/>
<polygon fill="#f0f0f0" stroke="transparent" points="442.5,-190 442.5,-226 484.5,-226 484.5,-190 442.5,-190"/>
<polygon fill="none" stroke="black" points="442.5,-190 442.5,-226 484.5,-226 484.5,-190 442.5,-190"/>
<text text-anchor="start" x="449.5" y="-205.5" font-family="Times,serif" font-size="10.00">input</text>
<polygon fill="none" stroke="black" points="484.5,-190 484.5,-226 541.5,-226 541.5,-190 484.5,-190"/>
<text text-anchor="start" x="499" y="-211" font-family="Times,serif" font-size="10.00">ReLU</text>
<text text-anchor="start" x="491.5" y="-200" font-family="Times,serif" font-size="10.00">depth: 2</text>
<polygon fill="#f0f0f0" stroke="transparent" points="541.5,-190 541.5,-226 589.5,-226 589.5,-190 541.5,-190"/>
<polygon fill="none" stroke="black" points="541.5,-190 541.5,-226 589.5,-226 589.5,-190 541.5,-190"/>
<text text-anchor="start" x="548.5" y="-205.5" font-family="Times,serif" font-size="10.00">output</text>
</g>
<!-- layers&#45;&gt;layers_3 -->
<g id="edge5" class="edge">
<title>layers&#45;&gt;layers_3</title>
<path fill="none" stroke="black" d="M398.21,-208C406.66,-208 415.25,-208 423.73,-208"/>
<polygon fill="black" stroke="black" points="424,-211.5 434,-208 424,-204.5 424,-211.5"/>
</g>
<!-- layers_4 -->
<g id="node7" class="node">
<title>layers_4</title>
<polygon fill="#c1ffc1" stroke="transparent" points="597,-168 434,-168 434,-124 597,-124 597,-168"/>
<polygon fill="#f0f0f0" stroke="transparent" points="442.5,-128 442.5,-164 484.5,-164 484.5,-128 442.5,-128"/>
<polygon fill="none" stroke="black" points="442.5,-128 442.5,-164 484.5,-164 484.5,-128 442.5,-128"/>
<text text-anchor="start" x="449.5" y="-143.5" font-family="Times,serif" font-size="10.00">input</text>
<polygon fill="none" stroke="black" points="484.5,-128 484.5,-164 541.5,-164 541.5,-128 484.5,-128"/>
<text text-anchor="start" x="496" y="-149" font-family="Times,serif" font-size="10.00">Linear</text>
<text text-anchor="start" x="491.5" y="-138" font-family="Times,serif" font-size="10.00">depth: 2</text>
<polygon fill="#f0f0f0" stroke="transparent" points="541.5,-128 541.5,-164 589.5,-164 589.5,-128 541.5,-128"/>
<polygon fill="none" stroke="black" points="541.5,-128 541.5,-164 589.5,-164 589.5,-128 541.5,-128"/>
<text text-anchor="start" x="548.5" y="-143.5" font-family="Times,serif" font-size="10.00">output</text>
</g>
<!-- layers&#45;&gt;layers_4 -->
<g id="edge6" class="edge">
<title>layers&#45;&gt;layers_4</title>
<path fill="none" stroke="black" d="M382.67,-185.97C398.55,-181.15 415.47,-176.02 431.71,-171.1"/>
<polygon fill="black" stroke="black" points="433.16,-174.32 441.71,-168.07 431.13,-167.62 433.16,-174.32"/>
</g>
<!-- layers_5 -->
<g id="node8" class="node">
<title>layers_5</title>
<polygon fill="#c1ffc1" stroke="transparent" points="597,-106 434,-106 434,-62 597,-62 597,-106"/>
<polygon fill="#f0f0f0" stroke="transparent" points="442.5,-66 442.5,-102 484.5,-102 484.5,-66 442.5,-66"/>
<polygon fill="none" stroke="black" points="442.5,-66 442.5,-102 484.5,-102 484.5,-66 442.5,-66"/>
<text text-anchor="start" x="449.5" y="-81.5" font-family="Times,serif" font-size="10.00">input</text>
<polygon fill="none" stroke="black" points="484.5,-66 484.5,-102 541.5,-102 541.5,-66 484.5,-66"/>
<text text-anchor="start" x="499" y="-87" font-family="Times,serif" font-size="10.00">ReLU</text>
<text text-anchor="start" x="491.5" y="-76" font-family="Times,serif" font-size="10.00">depth: 2</text>
<polygon fill="#f0f0f0" stroke="transparent" points="541.5,-66 541.5,-102 589.5,-102 589.5,-66 541.5,-66"/>
<polygon fill="none" stroke="black" points="541.5,-66 541.5,-102 589.5,-102 589.5,-66 541.5,-66"/>
<text text-anchor="start" x="548.5" y="-81.5" font-family="Times,serif" font-size="10.00">output</text>
</g>
<!-- layers&#45;&gt;layers_5 -->
<g id="edge7" class="edge">
<title>layers&#45;&gt;layers_5</title>
<path fill="none" stroke="black" d="M335.17,-185.82C359.26,-165.42 397.27,-135.33 434,-115 436.88,-113.4 439.86,-111.85 442.91,-110.35"/>
<polygon fill="black" stroke="black" points="444.61,-113.42 452.18,-106 441.64,-107.08 444.61,-113.42"/>
</g>
<!-- layers_6 -->
<g id="node9" class="node">
<title>layers_6</title>
<polygon fill="#c1ffc1" stroke="transparent" points="597,-44 434,-44 434,0 597,0 597,-44"/>
<polygon fill="#f0f0f0" stroke="transparent" points="442.5,-4 442.5,-40 484.5,-40 484.5,-4 442.5,-4"/>
<polygon fill="none" stroke="black" points="442.5,-4 442.5,-40 484.5,-40 484.5,-4 442.5,-4"/>
<text text-anchor="start" x="449.5" y="-19.5" font-family="Times,serif" font-size="10.00">input</text>
<polygon fill="none" stroke="black" points="484.5,-4 484.5,-40 541.5,-40 541.5,-4 484.5,-4"/>
<text text-anchor="start" x="496" y="-25" font-family="Times,serif" font-size="10.00">Linear</text>
<text text-anchor="start" x="491.5" y="-14" font-family="Times,serif" font-size="10.00">depth: 2</text>
<polygon fill="#f0f0f0" stroke="transparent" points="541.5,-4 541.5,-40 589.5,-40 589.5,-4 541.5,-4"/>
<polygon fill="none" stroke="black" points="541.5,-4 541.5,-40 589.5,-40 589.5,-4 541.5,-4"/>
<text text-anchor="start" x="548.5" y="-19.5" font-family="Times,serif" font-size="10.00">output</text>
</g>
<!-- layers&#45;&gt;layers_6 -->
<g id="edge8" class="edge">
<title>layers&#45;&gt;layers_6</title>
<path fill="none" stroke="black" d="M322.41,-185.92C342.07,-152.76 383.39,-90.04 434,-53 435.82,-51.67 437.7,-50.39 439.63,-49.16"/>
<polygon fill="black" stroke="black" points="441.5,-52.12 448.38,-44.06 437.97,-46.07 441.5,-52.12"/>
</g>
</g>
</svg>
