<?xml version="1.0" encoding="UTF-8" standalone="no"?>
<!DOCTYPE svg PUBLIC "-//W3C//DTD SVG 1.1//EN"
 "http://www.w3.org/Graphics/SVG/1.1/DTD/svg11.dtd">
<!-- Generated by graphviz version 2.43.0 (0)
 -->
<!-- Title: StructureGraph Pages: 1 -->
<svg width="382pt" height="176pt"
 viewBox="0.00 0.00 382.00 176.00" xmlns="http://www.w3.org/2000/svg" xmlns:xlink="http://www.w3.org/1999/xlink">
<g id="graph0" class="graph" transform="scale(1 1) rotate(0) translate(4 172)">
<title>StructureGraph</title>
<polygon fill="white" stroke="transparent" points="-4,4 -4,-172 378,-172 378,4 -4,4"/>
<!-- root -->
<g id="node1" class="node">
<title>root</title>
<polygon fill="#c1ffc1" stroke="transparent" points="175,-106 0,-106 0,-62 175,-62 175,-106"/>
<polygon fill="#f0f0f0" stroke="transparent" points="8.5,-66 8.5,-102 50.5,-102 50.5,-66 8.5,-66"/>
<polygon fill="none" stroke="black" points="8.5,-66 8.5,-102 50.5,-102 50.5,-66 8.5,-66"/>
<text text-anchor="start" x="15.5" y="-81.5" font-family="Times,serif" font-size="10.00">input</text>
<polygon fill="none" stroke="black" points="50.5,-66 50.5,-102 119.5,-102 119.5,-66 50.5,-66"/>
<text text-anchor="start" x="57.5" y="-87" font-family="Times,serif" font-size="10.00">SimpleNet</text>
<text text-anchor="start" x="63.5" y="-76" font-family="Times,serif" font-size="10.00">depth: 0</text>
<polygon fill="#f0f0f0" stroke="transparent" points="119.5,-66 119.5,-102 167.5,-102 167.5,-66 119.5,-66"/>
<polygon fill="none" stroke="black" points="119.5,-66 119.5,-102 167.5,-102 167.5,-66 119.5,-66"/>
<text text-anchor="start" x="126.5" y="-81.5" font-family="Times,serif" font-size="10.00">output</text>
</g>
<!-- fc1 -->
<g id="node2" class="node">
<title>fc1</title>
<polygon fill="#c1ffc1" stroke="transparent" points="374,-168 211,-168 211,-124 374,-124 374,-168"/>
<polygon fill="#f0f0f0" stroke="transparent" points="219.5,-128 219.5,-164 261.5,-164 261.5,-128 219.5,-128"/>
<polygon fill="none" stroke="black" points="219.5,-128 219.5,-164 261.5,-164 261.5,-128 219.5,-128"/>
<text text-anchor="start" x="226.5" y="-143.5" font-family="Times,serif" font-size="10.00">input</text>
<polygon fill="none" stroke="black" points="261.5,-128 261.5,-164 318.5,-164 318.5,-128 261.5,-128"/>
<text text-anchor="start" x="273" y="-149" font-family="Times,serif" font-size="10.00">Linear</text>
<text text-anchor="start" x="268.5" y="-138" font-family="Times,serif" font-size="10.00">depth: 1</text>
<polygon fill="#f0f0f0" stroke="transparent" points="318.5,-128 318.5,-164 366.5,-164 366.5,-128 318.5,-128"/>
<polygon fill="none" stroke="black" points="318.5,-128 318.5,-164 366.5,-164 366.5,-128 318.5,-128"/>
<text text-anchor="start" x="325.5" y="-143.5" font-family="Times,serif" font-size="10.00">output</text>
</g>
<!-- root&#45;&gt;fc1 -->
<g id="edge1" class="edge">
<title>root&#45;&gt;fc1</title>
<path fill="none" stroke="black" d="M160.64,-106.03C176.4,-110.85 193.2,-115.98 209.31,-120.9"/>
<polygon fill="black" stroke="black" points="208.66,-124.36 219.25,-123.93 210.71,-117.66 208.66,-124.36"/>
</g>
<!-- relu -->
<g id="node3" class="node">
<title>relu</title>
<polygon fill="#c1ffc1" stroke="transparent" points="374,-106 211,-106 211,-62 374,-62 374,-106"/>
<polygon fill="#f0f0f0" stroke="transparent" points="219.5,-66 219.5,-102 261.5,-102 261.5,-66 219.5,-66"/>
<polygon fill="none" stroke="black" points="219.5,-66 219.5,-102 261.5,-102 261.5,-66 219.5,-66"/>
<text text-anchor="start" x="226.5" y="-81.5" font-family="Times,serif" font-size="10.00">input</text>
<polygon fill="none" stroke="black" points="261.5,-66 261.5,-102 318.5,-102 318.5,-66 261.5,-66"/>
<text text-anchor="start" x="276" y="-87" font-family="Times,serif" font-size="10.00">ReLU</text>
<text text-anchor="start" x="268.5" y="-76" font-family="Times,serif" font-size="10.00">depth: 1</text>
<polygon fill="#f0f0f0" stroke="transparent" points="318.5,-66 318.5,-102 366.5,-102 366.5,-66 318.5,-66"/>
<polygon fill="none" stroke="black" points="318.5,-66 318.5,-102 366.5,-102 366.5,-66 318.5,-66"/>
<text text-anchor="start" x="325.5" y="-81.5" font-family="Times,serif" font-size="10.00">output</text>
</g>
<!-- root&#45;&gt;relu -->
<g id="edge2" class="edge">
<title>root&#45;&gt;relu</title>
<path fill="none" stroke="black" d="M175.18,-84C183.61,-84 192.17,-84 200.64,-84"/>
<polygon fill="black" stroke="black" points="200.9,-87.5 210.9,-84 200.9,-80.5 200.9,-87.5"/>
</g>
<!-- fc2 -->
<g id="node4" class="node">
<title>fc2</title>
<polygon fill="#c1ffc1" stroke="transparent" points="374,-44 211,-44 211,0 374,0 374,-44"/>
<polygon fill="#f0f0f0" stroke="transparent" points="219.5,-4 219.5,-40 261.5,-40 261.5,-4 219.5,-4"/>
<polygon fill="none" stroke="black" points="219.5,-4 219.5,-40 261.5,-40 261.5,-4 219.5,-4"/>
<text text-anchor="start" x="226.5" y="-19.5" font-family="Times,serif" font-size="10.00">input</text>
<polygon fill="none" stroke="black" points="261.5,-4 261.5,-40 318.5,-40 318.5,-4 261.5,-4"/>
<text text-anchor="start" x="273" y="-25" font-family="Times,serif" font-size="10.00">Linear</text>
<text text-anchor="start" x="268.5" y="-14" font-family="Times,serif" font-size="10.00">depth: 1</text>
<polygon fill="#f0f0f0" stroke="transparent" points="318.5,-4 318.5,-40 366.5,-40 366.5,-4 318.5,-4"/>
<polygon fill="none" stroke="black" points="318.5,-4 318.5,-40 366.5,-40 366.5,-4 318.5,-4"/>
<text text-anchor="start" x="325.5" y="-19.5" font-family="Times,serif" font-size="10.00">output</text>
</g>
<!-- root&#45;&gt;fc2 -->
<g id="edge3" class="edge">
<title>root&#45;&gt;fc2</title>
<path fill="none" stroke="black" d="M160.64,-61.97C176.4,-57.15 193.2,-52.02 209.31,-47.1"/>
<polygon fill="black" stroke="black" points="210.71,-50.34 219.25,-44.07 208.66,-43.64 210.71,-50.34"/>
</g>
</g>
</svg>
